<?xml version="1.0" standalone="no"?>
<!DOCTYPE svg PUBLIC "-//W3C//DTD SVG 20010904//EN"
 "http://www.w3.org/TR/2001/REC-SVG-20010904/DTD/svg10.dtd">
<svg version="1.0" xmlns="http://www.w3.org/2000/svg"
 width="2000.000000pt" height="2000.000000pt" viewBox="0 0 2000.000000 2000.000000"
 preserveAspectRatio="xMidYMid meet">

<g transform="translate(0.000000,2000.000000) scale(0.100000,-0.100000)"
fill="#FCB827" stroke="none">
<path d="M9932 19873 c-51 -25 -82 -87 -93 -190 -5 -48 -55 -1323 -110 -2833
-55 -1510 -103 -2756 -106 -2770 -4 -18 -17 18 -43 120 -48 181 -112 374 -230
695 -308 835 -355 1085 -318 1681 27 442 -44 860 -219 1283 -53 128 -150 323
-264 531 -194 355 -237 458 -259 619 -16 122 -2 219 61 419 21 68 39 136 39
153 0 67 -45 109 -116 109 -140 0 -277 -199 -340 -492 -25 -113 -25 -414 -1
-543 34 -187 64 -269 251 -686 154 -344 212 -589 238 -991 9 -147 9 -234 -1
-405 -46 -781 -14 -1086 175 -1678 165 -517 190 -609 224 -802 24 -139 37
-293 24 -293 -5 1 -547 1174 -1204 2607 -657 1434 -1208 2626 -1224 2650 -33
51 -99 93 -146 93 -18 0 -49 -9 -70 -21 -62 -35 -87 -100 -70 -187 5 -27 448
-1232 984 -2678 536 -1446 977 -2638 981 -2649 7 -22 6 -21 -123 145 -108 141
-201 248 -447 515 -360 391 -476 531 -605 726 -144 217 -210 356 -311 647
-101 291 -198 493 -336 701 -203 304 -408 513 -873 888 -220 177 -299 250
-362 332 -103 137 -150 271 -168 489 -15 183 -30 221 -95 242 -36 12 -91 -4
-128 -38 -57 -52 -97 -190 -97 -340 0 -297 152 -661 389 -931 31 -35 146 -148
255 -250 229 -213 354 -354 471 -531 159 -240 277 -495 409 -877 219 -640 370
-899 856 -1468 210 -247 274 -329 375 -480 103 -155 190 -311 178 -318 -4 -3
-953 872 -2108 1944 -1155 1072 -2120 1963 -2144 1979 -88 59 -169 60 -224 2
-56 -59 -56 -136 0 -220 16 -22 881 -959 1923 -2082 1042 -1124 1905 -2055
1918 -2071 18 -23 0 -15 -95 42 -156 92 -386 209 -723 364 -462 212 -690 338
-906 498 -114 85 -318 282 -468 452 -176 199 -408 394 -632 530 -274 167 -506
261 -1012 411 -404 119 -510 167 -637 286 -76 71 -138 160 -219 317 -64 122
-93 151 -153 151 -39 0 -90 -41 -109 -87 -19 -44 -18 -171 2 -247 68 -263 334
-575 647 -758 92 -53 197 -99 437 -188 587 -218 883 -433 1396 -1015 294 -333
535 -539 854 -733 63 -38 248 -138 410 -222 320 -165 409 -215 540 -298 100
-64 264 -189 300 -228 l25 -27 -25 5 c-14 3 -1228 452 -2699 997 -1471 546
-2696 996 -2723 1001 -87 17 -152 -8 -187 -70 -12 -21 -21 -52 -21 -70 0 -45
40 -111 87 -143 21 -14 1176 -549 2568 -1188 1392 -638 2548 -1170 2570 -1180
l40 -19 -40 4 c-22 3 -92 12 -155 20 -176 23 -352 35 -740 51 -385 16 -535 27
-705 51 -313 44 -548 116 -852 262 -320 154 -494 215 -748 266 -190 37 -268
46 -490 52 -219 7 -386 -2 -750 -42 -537 -58 -684 -25 -970 215 -55 46 -115
90 -134 98 -43 18 -91 10 -120 -21 -118 -125 55 -405 361 -581 101 -59 271
-128 389 -159 197 -51 266 -55 829 -47 207 2 291 0 384 -13 340 -47 619 -140
1066 -356 309 -149 406 -190 605 -255 311 -103 527 -140 1085 -185 295 -24
490 -50 644 -85 138 -31 276 -73 276 -84 0 -12 -20 -13 -2935 -121 -1490 -55
-2750 -104 -2798 -109 -138 -15 -207 -69 -207 -161 0 -92 69 -146 207 -161 48
-5 1323 -55 2833 -110 1510 -55 2756 -103 2770 -106 18 -4 -19 -17 -123 -44
-183 -48 -359 -107 -727 -242 -804 -295 -1056 -342 -1645 -305 -441 27 -861
-44 -1280 -217 -131 -54 -335 -156 -590 -294 -358 -195 -459 -232 -640 -234
-114 -1 -170 10 -343 64 -134 42 -169 46 -211 25 -49 -26 -66 -102 -36 -171
33 -81 171 -178 327 -231 228 -77 541 -83 814 -14 121 30 238 75 444 170 441
204 674 265 1113 292 147 9 234 9 405 -1 490 -29 776 -25 1032 14 231 36 346
67 975 265 88 28 216 64 283 81 198 48 483 85 482 62 -1 -5 -1174 -546 -2607
-1203 -1433 -657 -2626 -1208 -2650 -1224 -51 -33 -93 -99 -93 -146 0 -18 9
-49 21 -70 35 -62 100 -87 187 -70 27 5 1239 450 2692 989 1454 539 2645 979
2647 977 2 -1 -48 -40 -110 -87 -144 -107 -288 -232 -562 -484 -389 -358 -521
-468 -722 -602 -213 -142 -372 -219 -652 -315 -474 -161 -811 -368 -1146 -703
-143 -142 -227 -239 -442 -505 -177 -220 -250 -299 -332 -362 -137 -103 -271
-150 -489 -168 -146 -12 -192 -23 -215 -47 -62 -69 -30 -166 74 -218 288 -146
833 4 1208 334 35 31 148 146 250 255 213 229 353 353 531 471 239 159 496
278 878 409 328 112 490 180 687 289 217 119 391 241 630 441 72 61 197 165
276 232 79 66 188 153 242 193 155 115 420 271 430 253 3 -4 -872 -952 -1944
-2107 -1072 -1155 -1963 -2120 -1979 -2144 -59 -87 -60 -164 -3 -223 55 -57
137 -57 221 -1 22 16 959 881 2082 1923 1124 1042 2055 1905 2071 1918 23 18
15 0 -42 -95 -92 -155 -209 -388 -359 -713 -212 -462 -345 -703 -510 -925 -80
-107 -283 -317 -445 -459 -195 -171 -394 -408 -530 -632 -168 -274 -261 -506
-411 -1012 -92 -313 -138 -434 -204 -533 -85 -131 -186 -212 -400 -324 -121
-63 -150 -93 -150 -152 0 -39 41 -90 87 -109 44 -19 171 -18 247 2 263 68 575
334 758 647 53 92 99 197 188 437 218 587 433 883 1015 1396 333 294 539 535
733 854 38 63 138 248 222 410 224 433 310 576 462 767 75 94 94 110 86 71 -3
-13 -452 -1226 -997 -2697 -546 -1471 -996 -2696 -1001 -2723 -17 -87 8 -152
70 -187 21 -12 52 -21 70 -21 49 0 113 42 148 97 17 26 549 1178 1183 2558
633 1381 1163 2533 1176 2560 l24 50 -5 -40 c-3 -22 -12 -92 -20 -155 -23
-176 -35 -352 -51 -740 -16 -385 -27 -535 -51 -705 -44 -313 -116 -548 -262
-852 -113 -236 -157 -343 -206 -505 -127 -419 -145 -796 -71 -1481 59 -538 26
-686 -214 -972 -46 -55 -90 -115 -98 -134 -20 -46 -9 -94 27 -124 43 -37 93
-42 170 -18 271 84 533 499 601 951 14 90 16 236 10 655 -2 202 0 287 13 379
47 341 139 616 356 1066 179 372 246 543 310 785 67 256 93 438 135 965 27
334 66 568 130 776 14 46 29 84 34 84 12 0 13 -9 121 -2940 55 -1488 104
-2745 109 -2793 15 -138 69 -207 161 -207 92 0 146 69 161 207 5 48 55 1323
110 2833 55 1510 103 2756 106 2770 4 17 17 -20 44 -123 48 -183 107 -359 242
-727 295 -804 342 -1056 305 -1645 -27 -442 44 -861 218 -1283 53 -127 151
-324 294 -587 194 -358 231 -460 233 -640 1 -114 -10 -170 -64 -343 -42 -131
-46 -166 -27 -207 23 -51 103 -70 172 -41 81 34 179 172 232 328 93 275 81
656 -32 968 -14 41 -71 172 -124 290 -179 394 -234 574 -276 905 -21 168 -24
529 -5 821 16 255 10 577 -14 754 -35 251 -91 474 -220 870 -80 247 -119 382
-150 518 -41 185 -68 423 -47 422 4 -1 545 -1174 1202 -2607 657 -1434 1208
-2626 1224 -2650 33 -51 99 -93 146 -93 18 0 49 9 70 21 62 35 87 100 70 187
-5 27 -450 1239 -989 2692 -539 1454 -979 2646 -977 2648 2 2 19 -18 36 -44
98 -141 274 -347 609 -710 327 -355 500 -575 632 -808 81 -143 134 -264 209
-480 101 -292 196 -491 334 -701 197 -300 411 -517 876 -892 220 -177 299
-250 362 -332 103 -137 150 -271 168 -489 12 -146 23 -192 47 -215 69 -62 166
-30 218 74 79 155 72 414 -16 666 -42 118 -138 306 -206 401 -87 121 -153 191
-367 391 -229 213 -354 354 -471 531 -159 240 -277 495 -409 877 -219 640
-368 895 -856 1468 -179 210 -253 302 -327 406 -109 154 -241 383 -225 392 4
3 952 -872 2107 -1944 1155 -1072 2120 -1963 2144 -1979 88 -59 169 -60 224
-2 56 59 56 136 0 220 -16 22 -881 959 -1923 2082 -1042 1124 -1905 2055
-1918 2071 -18 23 0 15 95 -42 156 -92 386 -209 723 -364 462 -212 690 -338
906 -498 114 -85 320 -283 468 -452 173 -197 408 -394 632 -530 274 -167 503
-260 1010 -410 405 -120 512 -168 639 -287 76 -71 138 -160 219 -317 64 -122
93 -151 153 -151 39 0 90 41 109 87 19 44 18 171 -2 247 -68 263 -334 575
-647 758 -92 53 -197 99 -437 188 -587 218 -883 433 -1396 1015 -294 333 -535
539 -854 733 -63 38 -248 138 -410 222 -320 165 -409 215 -540 298 -100 64
-264 189 -300 228 l-25 27 25 -5 c14 -3 1228 -452 2699 -997 1471 -546 2696
-996 2723 -1001 87 -17 152 8 187 70 12 21 21 52 21 70 0 45 -40 111 -87 143
-21 14 -1176 549 -2568 1188 -1391 638 -2548 1170 -2570 1180 l-40 19 50 -5
c28 -3 97 -12 155 -20 161 -21 341 -33 740 -50 815 -35 1076 -88 1550 -315
234 -111 341 -155 502 -204 231 -70 458 -104 733 -113 219 -6 389 4 750 43
536 58 683 26 970 -215 55 -46 115 -90 134 -98 91 -38 173 42 155 152 -36 217
-319 457 -684 578 -227 76 -411 94 -780 78 -422 -18 -685 15 -1034 131 -180
59 -294 107 -577 244 -630 304 -888 370 -1679 434 -294 24 -490 50 -644 85
-138 31 -276 73 -276 84 0 12 20 13 2935 121 1491 55 2750 104 2798 109 138
15 207 69 207 161 0 92 -69 146 -207 161 -48 5 -1323 55 -2833 110 -1510 55
-2756 103 -2770 106 -18 4 18 17 120 43 184 49 372 111 730 243 808 296 1054
342 1645 305 431 -26 829 38 1241 202 158 63 335 150 629 310 358 194 460 231
640 233 114 1 170 -10 343 -64 134 -42 169 -46 211 -25 49 26 66 102 36 171
-33 81 -171 178 -327 231 -275 93 -656 81 -968 -32 -41 -14 -172 -71 -290
-124 -314 -143 -468 -197 -680 -240 -239 -49 -588 -69 -860 -50 -713 49 -1070
11 -1655 -176 -517 -165 -609 -190 -802 -224 -139 -24 -293 -37 -293 -24 1 5
1174 547 2607 1204 1433 657 2626 1208 2650 1224 51 33 93 99 93 146 0 18 -9
49 -21 70 -35 62 -100 87 -187 70 -27 -5 -1232 -448 -2678 -984 -1446 -536
-2638 -977 -2649 -981 -22 -7 -21 -6 145 123 141 108 248 201 515 447 391 360
531 476 726 605 217 144 356 210 647 311 291 101 493 198 701 336 304 203 513
408 888 873 177 220 250 299 332 362 137 103 271 150 489 168 183 15 221 30
242 95 12 36 -4 91 -38 128 -52 57 -190 97 -340 97 -187 0 -379 -52 -594 -162
-216 -109 -337 -212 -657 -556 -350 -375 -703 -588 -1338 -806 -641 -220 -897
-369 -1468 -856 -247 -210 -329 -274 -480 -375 -155 -103 -311 -190 -318 -178
-3 4 872 953 1944 2108 1072 1155 1963 2120 1979 2144 59 87 60 164 3 223 -55
57 -137 57 -221 1 -22 -16 -959 -881 -2082 -1923 -1124 -1042 -2055 -1905
-2071 -1918 -23 -18 -15 0 42 95 90 152 206 382 359 713 166 359 226 479 331
655 163 273 304 442 564 674 305 272 489 498 660 807 124 226 211 454 341 892
119 403 167 510 286 637 71 76 160 138 317 219 122 64 151 93 151 153 0 39
-41 90 -87 109 -43 19 -175 18 -248 -1 -157 -41 -327 -148 -486 -305 -218
-215 -304 -360 -460 -782 -174 -471 -351 -750 -699 -1099 -85 -86 -227 -219
-315 -296 -330 -289 -547 -543 -743 -869 -33 -55 -131 -237 -218 -405 -86
-167 -192 -362 -234 -434 -80 -134 -237 -351 -285 -395 l-28 -25 5 25 c3 14
452 1228 997 2699 546 1471 996 2696 1001 2723 17 87 -8 152 -70 187 -21 12
-52 21 -70 21 -45 0 -111 -40 -143 -87 -14 -21 -549 -1176 -1188 -2568 -639
-1391 -1170 -2548 -1180 -2570 l-19 -40 5 50 c3 28 12 97 20 155 21 162 34
343 50 740 17 404 26 518 56 725 44 303 111 516 259 825 147 308 213 492 259
720 75 376 79 675 16 1263 -59 538 -26 686 214 972 46 55 90 115 98 134 38 91
-42 173 -152 155 -217 -36 -457 -319 -578 -684 -75 -226 -93 -399 -80 -799 12
-369 -3 -546 -67 -801 -62 -251 -132 -430 -306 -791 -304 -632 -369 -883 -434
-1679 -24 -288 -50 -484 -85 -643 -31 -137 -73 -277 -84 -277 -12 0 -13 9
-121 2940 -55 1488 -104 2745 -109 2793 -7 64 -17 100 -35 131 -41 70 -122 95
-194 59z m120 -109 c12 -20 20 -61 24 -110 10 -158 214 -5687 210 -5691 -3 -3
-45 -2 -95 2 l-90 7 -5 52 c-3 28 -25 594 -48 1259 -23 664 -45 1207 -48 1207
-3 0 -25 -543 -48 -1207 -23 -665 -45 -1231 -48 -1259 l-5 -52 -90 -7 c-50 -4
-92 -5 -95 -2 -5 5 203 5614 212 5713 3 34 14 75 25 93 16 27 25 32 51 29 24
-2 37 -11 50 -34z m-1752 -185 c0 -10 -18 -74 -40 -143 -54 -170 -63 -235 -57
-385 8 -199 42 -288 268 -702 151 -277 246 -477 312 -659 121 -335 177 -674
163 -1004 -3 -89 -9 -234 -12 -322 -10 -245 19 -496 86 -760 35 -137 147 -470
280 -829 97 -264 175 -512 214 -679 39 -164 43 -149 -44 -163 -41 -6 -89 -12
-106 -12 -30 -1 -32 1 -38 44 -27 176 -134 512 -314 986 -233 613 -286 842
-286 1239 0 118 3 229 7 245 5 19 4 24 -2 15 -17 -30 -51 -197 -61 -311 -25
-269 19 -511 205 -1114 154 -500 213 -757 250 -1095 l6 -56 -92 -22 c-51 -12
-93 -21 -94 -20 -1 2 -9 66 -18 143 -27 224 -73 406 -197 790 -126 386 -173
571 -212 820 -27 175 -35 535 -18 795 16 242 16 596 1 755 -36 359 -103 577
-324 1066 -126 278 -164 425 -174 674 -11 280 52 527 170 661 60 68 127 91
127 43z m3789 -48 c21 -14 6 -40 -84 -146 -124 -146 -171 -227 -221 -375 -28
-83 -29 -91 -28 -290 0 -158 7 -259 28 -440 33 -287 45 -643 27 -836 -35 -366
-111 -626 -296 -1014 -232 -485 -295 -784 -325 -1535 -19 -485 -40 -750 -75
-950 -8 -44 -15 -84 -15 -90 -1 -34 -16 -36 -110 -11 -51 14 -95 27 -97 30 -3
3 4 60 16 128 44 267 57 426 71 908 12 416 23 557 56 759 40 245 115 480 218
686 25 49 44 90 43 91 -1 2 -28 -32 -59 -74 -116 -156 -210 -373 -262 -603
-36 -163 -51 -272 -86 -634 -55 -582 -101 -860 -191 -1155 -20 -66 -22 -69
-47 -65 -15 3 -56 9 -91 15 -35 5 -65 11 -67 13 -2 2 10 49 26 105 67 235 97
424 130 842 34 421 58 594 120 840 60 239 130 418 300 770 173 357 258 579
321 834 61 251 64 287 64 806 1 453 2 480 23 577 60 276 173 511 319 664 110
115 241 182 292 150z m-5769 -498 c24 -22 296 -607 1230 -2642 660 -1438 1197
-2618 1193 -2621 -15 -13 -162 -62 -170 -57 -5 3 -247 526 -538 1161 -290 636
-530 1155 -531 1153 -2 -2 197 -541 441 -1198 245 -656 445 -1195 445 -1197 0
-5 -172 -83 -175 -80 -11 14 -1996 5387 -2001 5417 -13 83 46 118 106 64z
m7456 2 c12 -18 15 -36 10 -66 -5 -30 -1990 -5403 -2001 -5417 -3 -3 -175 75
-175 80 0 2 200 541 445 1197 244 657 443 1196 441 1198 -1 2 -241 -517 -531
-1153 -291 -635 -533 -1158 -538 -1161 -8 -5 -155 44 -170 57 -4 3 533 1183
1193 2621 934 2035 1206 2620 1230 2642 38 34 74 35 96 2z m-9018 -828 c6 -7
16 -71 22 -142 33 -386 125 -540 504 -849 303 -246 393 -323 509 -436 253
-244 422 -471 566 -757 70 -138 102 -218 176 -432 170 -495 326 -726 949
-1402 181 -196 340 -380 432 -499 82 -106 154 -212 149 -220 -7 -12 -166 -101
-175 -98 -4 2 -45 55 -90 118 -148 208 -236 311 -570 665 -260 276 -360 390
-468 534 -176 234 -288 451 -390 756 l-10 30 -1 -26 c-3 -79 55 -293 115 -430
95 -215 198 -365 539 -779 268 -326 369 -457 480 -625 83 -125 215 -350 215
-366 0 -8 -137 -109 -148 -109 -4 0 -29 41 -57 92 -27 50 -78 133 -112 184
-106 160 -137 200 -512 645 -360 428 -533 738 -722 1295 -161 478 -331 811
-556 1089 -45 56 -201 217 -348 360 -146 142 -293 294 -325 336 -113 151 -216
361 -260 534 -53 208 -40 422 32 509 32 39 40 43 56 23z m10775 -178 c41 -11
56 -31 38 -53 -6 -7 -62 -39 -123 -71 -208 -107 -309 -192 -406 -340 -68 -104
-114 -222 -211 -550 -146 -494 -236 -718 -394 -979 -157 -261 -316 -447 -578
-677 -379 -332 -565 -601 -859 -1236 -229 -495 -430 -879 -515 -988 l-20 -25
-61 47 c-33 27 -70 55 -83 63 l-23 16 55 84 c137 213 248 428 442 865 261 586
426 848 701 1116 55 52 116 110 137 127 49 42 39 40 -37 -5 -102 -61 -166
-112 -265 -207 -191 -186 -299 -348 -556 -836 -150 -284 -263 -482 -362 -634
-84 -128 -249 -352 -278 -376 -12 -10 -29 -4 -95 35 l-81 47 26 32 c181 223
267 362 494 798 93 179 197 372 231 429 188 312 409 571 715 839 443 387 682
665 859 1000 65 123 110 231 201 476 85 229 140 345 220 464 184 274 451 486
675 534 81 18 105 19 153 5z m-12375 -1098 c27 -14 3750 -3455 4186 -3869 l59
-56 -67 -64 c-37 -35 -71 -62 -76 -60 -5 2 -408 375 -897 829 -488 454 -917
852 -953 885 l-65 59 60 -66 c33 -36 431 -465 885 -953 454 -488 825 -893 825
-898 0 -15 -107 -136 -120 -137 -15 0 -3906 4202 -3926 4240 -24 44 -23 65 1
89 25 25 41 25 88 1z m13772 -1 c24 -24 25 -45 1 -89 -21 -39 -3911 -4240
-3926 -4239 -14 0 -117 114 -119 131 0 8 370 414 824 902 454 489 852 918 885
954 l60 66 -65 -59 c-36 -33 -465 -431 -953 -885 -489 -454 -892 -827 -897
-829 -5 -2 -39 25 -76 60 l-67 64 59 56 c401 380 4158 3855 4184 3868 45 25
65 25 90 0z m-14898 -1367 c9 -10 37 -61 63 -113 114 -228 252 -372 445 -464
85 -41 222 -87 553 -185 417 -124 716 -254 969 -424 232 -155 368 -278 598
-537 323 -366 619 -566 1295 -875 283 -130 576 -275 700 -347 144 -84 235
-142 235 -149 0 -5 -102 -144 -120 -163 -5 -5 -49 17 -102 51 -212 138 -449
258 -893 454 -368 162 -598 288 -793 433 -95 71 -312 261 -312 274 -1 4 -28
36 -62 72 l-61 65 28 -50 c124 -220 342 -426 645 -607 69 -41 247 -139 395
-218 341 -180 494 -268 670 -386 147 -97 332 -238 348 -264 7 -12 -3 -36 -38
-93 -25 -42 -48 -77 -51 -77 -2 0 -37 27 -76 60 -163 137 -338 244 -743 452
-330 171 -433 229 -595 339 -255 172 -428 329 -695 629 -307 344 -533 554
-764 709 -193 130 -344 202 -701 336 -320 120 -458 197 -641 358 -149 130
-282 316 -337 470 -53 149 -25 323 40 250z m16081 -224 c21 -7 55 -27 75 -45
56 -49 37 -60 -122 -74 -387 -33 -541 -125 -850 -504 -271 -334 -326 -397
-475 -547 -239 -238 -436 -384 -700 -518 -157 -80 -230 -110 -451 -186 -274
-95 -439 -176 -660 -326 -202 -137 -324 -240 -761 -641 -283 -260 -528 -462
-666 -549 l-31 -20 -51 84 c-28 47 -51 89 -51 93 0 5 56 49 124 97 164 116
302 232 520 435 98 92 233 218 300 280 395 370 683 556 1065 688 106 36 91 43
-40 18 -309 -58 -562 -198 -972 -536 -479 -394 -626 -506 -837 -638 -100 -63
-271 -160 -282 -160 -3 0 -31 33 -61 74 l-56 75 107 59 c59 33 145 86 191 117
152 102 194 135 632 504 428 360 738 533 1295 722 330 111 570 217 785 345
234 140 318 211 659 554 249 251 333 329 401 373 168 111 351 191 519 228 98
22 327 21 393 -2z m-7796 -1440 c921 -75 1785 -473 2438 -1123 580 -577 966
-1317 1100 -2108 44 -260 50 -348 50 -678 -1 -346 -15 -500 -74 -787 -307
-1491 -1468 -2674 -2961 -3016 -291 -67 -556 -97 -867 -97 -928 0 -1792 312
-2510 908 -707 586 -1195 1433 -1348 2334 -43 257 -50 349 -50 668 0 319 7
411 50 668 237 1399 1239 2572 2596 3037 266 91 642 170 924 194 147 12 505
13 652 0z m-6561 -1115 c1479 -548 2690 -998 2692 -999 1 -1 -16 -41 -38 -90
-33 -72 -43 -86 -58 -80 -128 50 -2377 884 -2379 881 -2 -1 517 -241 1153
-531 635 -291 1158 -533 1161 -538 5 -8 -44 -155 -57 -170 -3 -4 -1183 533
-2621 1193 -2036 934 -2620 1206 -2641 1230 -54 59 -22 116 58 106 23 -3 1252
-454 2730 -1002z m15282 990 c30 -21 28 -57 -5 -94 -22 -24 -606 -296 -2642
-1230 -1438 -660 -2618 -1197 -2621 -1193 -13 15 -62 162 -57 170 3 5 526 247
1161 538 636 290 1155 530 1153 531 -2 3 -2251 -831 -2379 -881 -15 -6 -25 8
-58 80 -22 49 -39 89 -38 90 5 4 5214 1935 5318 1971 106 38 136 41 168 18z
m-18491 -1713 c26 -22 80 -66 120 -98 122 -99 221 -151 364 -190 101 -28 393
-24 689 11 430 50 790 47 1095 -9 267 -50 440 -109 755 -260 485 -232 784
-295 1535 -325 512 -20 706 -36 960 -77 55 -8 103 -19 108 -23 7 -6 -36 -186
-47 -197 -2 -2 -60 5 -128 16 -207 35 -369 50 -642 61 -144 6 -373 15 -511 20
-377 15 -616 50 -855 126 -124 39 -319 120 -388 160 -24 14 -45 24 -47 22 -9
-9 160 -123 255 -172 253 -131 476 -181 1055 -236 589 -56 850 -99 1158 -192
65 -19 68 -22 63 -47 -3 -14 -10 -55 -15 -90 -6 -35 -12 -65 -13 -67 -2 -1
-50 11 -107 27 -243 68 -422 95 -841 129 -419 34 -597 59 -825 116 -250 63
-430 133 -785 304 -367 177 -576 257 -834 321 -251 61 -287 64 -806 64 -452 1
-480 2 -577 23 -277 60 -511 173 -665 320 -103 98 -169 218 -154 278 9 33 27
30 83 -15z m18568 -71 c174 -25 334 -86 419 -161 68 -60 92 -129 45 -129 -10
0 -74 18 -143 40 -170 54 -235 63 -385 57 -199 -8 -288 -42 -702 -268 -277
-151 -477 -246 -659 -312 -335 -121 -674 -177 -1004 -163 -89 3 -234 9 -322
12 -240 10 -480 -17 -746 -82 -131 -32 -484 -151 -842 -283 -325 -120 -539
-185 -807 -245 l-26 -6 -13 103 c-7 56 -12 104 -12 107 1 2 48 14 106 27 239
51 440 116 927 301 617 234 839 286 1239 286 118 0 229 -3 245 -7 19 -5 24 -4
15 2 -30 18 -198 51 -313 61 -268 25 -509 -19 -1112 -205 -500 -154 -757 -213
-1096 -250 l-56 -6 -22 91 c-12 51 -21 93 -19 94 2 2 66 10 143 19 224 27 406
73 790 197 386 126 571 173 820 212 177 27 534 35 800 17 243 -16 587 -16 750
0 348 35 578 103 988 289 289 132 403 171 577 196 114 17 319 19 415 6z
m-13079 -1792 c-4 -51 -9 -94 -12 -97 -2 -2 -569 -25 -1259 -50 -690 -25
-1255 -48 -1255 -51 0 -3 565 -26 1255 -51 690 -25 1257 -48 1259 -50 11 -11
18 -189 8 -189 -41 0 -5615 210 -5680 214 -107 7 -147 27 -147 76 0 28 6 37
34 54 32 18 121 23 1710 83 922 34 2187 83 2811 107 624 24 1168 44 1209 45
l74 1 -7 -92z m10736 -12 c1536 -58 2831 -107 2876 -110 107 -7 147 -27 147
-76 0 -49 -40 -69 -147 -76 -65 -4 -5639 -214 -5680 -214 -10 0 -3 178 8 189
2 2 569 25 1259 50 690 25 1255 48 1255 51 0 3 -565 26 -1255 51 -690 25
-1257 48 -1259 50 -11 11 -18 189 -8 189 6 0 1267 -47 2804 -104z m-10702
-738 c7 -57 12 -105 12 -107 -1 -3 -56 -17 -124 -32 -235 -51 -432 -116 -891
-291 -631 -239 -857 -292 -1257 -292 -118 0 -228 3 -245 7 -19 5 -24 4 -15 -2
30 -17 198 -51 312 -61 234 -22 502 20 893 139 610 185 704 211 925 256 109
22 267 46 391 60 l55 6 17 -73 c10 -40 20 -83 23 -95 6 -21 3 -23 -27 -23 -75
0 -323 -44 -483 -85 -94 -24 -274 -77 -401 -118 -406 -133 -588 -180 -840
-219 -180 -27 -528 -35 -800 -17 -251 16 -584 16 -750 0 -348 -35 -580 -103
-985 -288 -210 -96 -284 -125 -394 -157 -248 -72 -586 -72 -802 -1 -166 56
-310 172 -287 232 8 20 32 16 167 -27 170 -54 235 -63 385 -57 199 8 281 39
691 263 285 155 487 251 670 317 335 121 674 177 1004 163 431 -17 497 -18
611 -7 351 34 586 99 1300 361 286 104 476 165 655 208 118 29 157 38 171 41
3 0 12 -45 19 -101z m7992 28 c220 -63 418 -93 828 -126 421 -34 594 -58 840
-120 239 -60 418 -130 770 -300 357 -173 579 -258 834 -321 251 -61 287 -64
806 -64 453 -1 480 -2 577 -23 277 -60 511 -173 665 -320 103 -98 169 -218
154 -278 -9 -33 -27 -30 -83 15 -26 22 -82 67 -123 101 -97 80 -192 132 -310
172 l-95 33 -205 -1 c-158 0 -259 -7 -440 -28 -287 -33 -643 -45 -836 -27
-366 35 -626 111 -1014 296 -325 155 -564 230 -875 274 -190 27 -346 38 -770
56 -198 9 -431 22 -517 30 -213 20 -429 53 -444 68 -3 2 6 47 20 98 29 111 1
104 256 66 224 -33 386 -45 805 -57 415 -12 564 -23 764 -56 245 -40 480 -115
686 -218 49 -25 90 -44 91 -43 8 8 -168 125 -256 171 -253 131 -475 181 -1055
236 -500 47 -691 75 -943 135 -132 32 -282 74 -282 79 0 1 5 29 10 62 6 32 13
74 16 92 4 25 9 32 22 28 9 -3 56 -16 104 -30z m-7801 -811 c16 -44 28 -84 25
-90 -2 -6 -524 -248 -1160 -539 -636 -291 -1155 -531 -1153 -532 2 -3 2251
831 2379 881 15 6 25 -8 58 -80 22 -49 39 -89 38 -90 -15 -12 -5387 -1996
-5418 -2001 -82 -13 -117 46 -62 106 21 24 605 296 2637 1229 1436 660 2614
1198 2619 1197 4 -1 21 -38 37 -81z m10130 -1115 c2036 -934 2620 -1206 2642
-1230 54 -60 19 -119 -63 -106 -31 5 -5403 1989 -5418 2001 -1 1 16 41 38 90
33 72 43 86 58 80 128 -50 2377 -884 2379 -881 2 1 -517 241 -1153 532 -636
291 -1158 533 -1161 539 -2 6 8 42 22 81 14 38 28 75 30 82 2 6 6 12 8 12 2 0
1180 -540 2618 -1200z m-9812 436 c28 -46 51 -88 51 -93 0 -6 -26 -27 -57 -48
-186 -123 -385 -290 -723 -610 -277 -262 -393 -364 -535 -470 -234 -176 -459
-292 -760 -393 -47 -16 -2 -15 98 3 200 35 405 122 619 262 110 72 233 168
486 377 330 272 432 351 612 471 136 90 363 225 381 225 4 0 32 -33 62 -74
l56 -75 -102 -56 c-217 -122 -374 -238 -747 -555 -504 -429 -782 -589 -1360
-785 -469 -159 -774 -310 -1063 -526 -46 -34 -222 -203 -397 -379 -339 -342
-384 -378 -585 -478 -213 -107 -378 -147 -570 -139 -137 6 -181 17 -233 63
-56 49 -37 60 122 74 402 34 550 129 915 585 177 220 245 299 381 438 236 244
465 414 747 556 139 70 218 102 433 176 198 68 327 125 467 206 271 156 438
287 858 674 271 250 383 348 506 446 84 68 277 209 285 209 1 0 25 -38 53 -84z
m7038 -74 c144 -110 293 -197 665 -391 426 -221 566 -306 768 -464 181 -142
316 -273 530 -517 359 -409 645 -652 970 -824 123 -65 231 -110 476 -201 229
-85 345 -140 464 -220 218 -146 386 -330 480 -526 66 -138 85 -281 45 -335
-23 -31 -43 -8 -119 135 -86 161 -170 269 -269 345 -137 104 -241 146 -727
290 -512 151 -844 312 -1155 561 -135 108 -242 212 -386 376 -332 379 -601
565 -1236 859 -495 229 -880 430 -988 515 l-25 20 60 79 c33 43 61 81 64 83 2
2 41 -20 87 -50 212 -137 421 -244 874 -447 448 -200 715 -350 903 -507 88
-74 230 -211 303 -296 32 -37 59 -65 59 -63 0 8 -58 104 -102 170 -55 81 -213
243 -313 321 -153 119 -298 207 -665 400 -284 150 -482 263 -634 362 -128 84
-352 249 -376 278 -10 12 -4 29 35 95 l47 81 32 -26 c17 -14 77 -60 133 -103z
m-6558 -573 c29 -32 54 -64 55 -72 0 -8 -370 -414 -824 -902 -454 -489 -852
-918 -885 -954 l-60 -66 65 59 c36 33 465 431 953 885 489 454 894 826 900
826 14 0 135 -107 135 -120 0 -17 -4203 -3907 -4243 -3928 -75 -38 -125 9 -89
84 20 42 3911 4248 3929 4247 6 0 34 -26 64 -59z m7905 -2044 c1072 -1156
1958 -2120 1969 -2140 38 -75 -9 -125 -84 -89 -41 20 -4247 3911 -4247 3929 0
13 121 120 135 120 6 0 411 -372 900 -826 488 -454 917 -852 953 -885 l65 -59
-60 66 c-33 36 -431 465 -885 954 -454 488 -824 894 -824 902 2 17 105 131
119 131 6 0 887 -946 1959 -2103z m-7339 1525 c39 -29 71 -54 73 -55 2 -2 -21
-40 -51 -86 -138 -212 -230 -391 -424 -822 -221 -493 -328 -690 -495 -910 -73
-95 -210 -241 -321 -338 -42 -38 -75 -69 -73 -69 8 0 105 59 170 102 81 55
243 213 321 313 121 155 208 301 435 730 148 279 249 454 353 610 68 102 229
316 252 335 12 10 29 4 95 -35 55 -32 78 -51 72 -59 -5 -6 -39 -48 -75 -93
-138 -172 -210 -292 -435 -723 -96 -184 -206 -387 -244 -450 -182 -300 -397
-551 -698 -815 -368 -322 -562 -531 -735 -790 -131 -196 -203 -347 -332 -694
-35 -97 -85 -219 -109 -271 -105 -222 -287 -441 -485 -583 -177 -126 -408
-189 -485 -132 -31 23 -8 43 135 119 156 83 252 156 326 246 112 138 157 242
274 635 151 508 233 714 394 979 158 263 314 445 579 678 373 327 570 609 853
1223 227 492 364 760 482 943 39 61 57 81 66 74 7 -5 44 -33 82 -62z m4873
-57 c107 -191 204 -327 402 -563 67 -80 172 -205 233 -278 349 -417 521 -728
708 -1278 154 -456 316 -779 526 -1053 36 -47 206 -225 378 -396 336 -334 373
-379 473 -580 107 -213 147 -378 139 -570 -6 -137 -17 -181 -63 -233 -49 -56
-60 -37 -74 122 -33 386 -125 541 -504 850 -303 246 -393 323 -509 436 -253
244 -422 471 -566 757 -70 139 -102 218 -176 433 -68 198 -125 327 -205 467
-159 276 -294 445 -739 928 -181 197 -307 341 -404 462 -85 107 -187 254 -182
263 7 12 166 101 175 98 4 -2 45 -55 90 -118 148 -208 236 -311 570 -665 258
-274 360 -390 465 -530 178 -236 291 -456 393 -760 16 -47 15 -2 -3 98 -36
204 -124 411 -268 627 -76 115 -152 213 -372 480 -353 429 -497 628 -636 879
l-63 114 28 21 c16 12 50 38 75 58 25 20 47 37 48 37 1 1 28 -47 61 -106z
m-4193 -352 c47 -22 85 -41 85 -43 0 -2 -200 -541 -445 -1197 -244 -657 -443
-1196 -441 -1198 1 -2 241 517 531 1153 291 635 533 1158 538 1161 8 5 155
-44 170 -57 4 -3 -533 -1183 -1193 -2621 -934 -2035 -1206 -2620 -1230 -2641
-63 -58 -122 -18 -104 70 8 40 1995 5412 2001 5412 2 0 41 -18 88 -39z m4475
-2643 c547 -1476 999 -2704 1004 -2730 18 -88 -41 -128 -104 -70 -24 21 -296
606 -1230 2641 -660 1438 -1197 2618 -1193 2621 15 13 162 62 170 57 5 -3 247
-526 538 -1161 290 -636 530 -1155 531 -1153 2 2 -197 541 -441 1198 -245 656
-445 1195 -445 1197 0 3 161 80 170 81 3 1 453 -1206 1000 -2681z m-3769 2387
c50 -13 94 -26 96 -29 2 -2 -5 -60 -16 -128 -35 -210 -51 -373 -61 -653 -30
-795 -36 -880 -85 -1120 -41 -201 -143 -490 -221 -623 -14 -24 -24 -45 -22
-47 9 -9 123 160 172 255 131 253 181 476 236 1055 56 588 99 850 191 1157 20
64 22 67 47 63 15 -3 56 -9 91 -15 35 -5 65 -11 67 -12 1 -2 -11 -50 -27 -107
-68 -243 -95 -422 -129 -841 -34 -419 -59 -597 -116 -825 -63 -250 -133 -430
-304 -785 -187 -387 -272 -614 -334 -892 -49 -218 -57 -342 -54 -802 3 -406 2
-425 -20 -523 -66 -298 -192 -547 -351 -695 -103 -96 -217 -148 -260 -119 -21
14 -6 40 80 141 140 164 210 298 246 468 21 105 13 345 -23 652 -24 204 -28
274 -28 535 -1 317 5 391 50 607 52 249 104 393 249 698 155 325 230 564 274
875 27 189 38 344 56 775 19 447 33 619 71 845 17 98 21 115 28 115 2 0 46
-11 97 -25z m2062 -127 c28 -228 73 -409 197 -793 126 -387 173 -572 212 -820
27 -176 35 -545 18 -794 -17 -231 -17 -597 -1 -756 36 -347 104 -582 288 -985
96 -210 125 -284 157 -394 72 -248 72 -586 1 -802 -28 -81 -76 -172 -116 -218
-60 -68 -129 -92 -129 -45 0 10 18 74 40 143 54 170 63 235 57 385 -8 200 -38
279 -267 700 -265 488 -378 779 -439 1131 -36 204 -45 348 -35 560 34 736 0
916 -356 1885 -124 340 -191 559 -245 811 -4 19 2 21 84 32 131 18 127 19 135
-30 29 -183 135 -518 306 -968 241 -633 294 -859 294 -1260 0 -118 -3 -228 -7
-245 -5 -19 -4 -24 2 -15 17 30 51 198 61 312 25 263 -22 519 -195 1078 -126
408 -183 628 -224 870 -20 116 -44 311 -39 315 4 3 161 43 173 44 6 1 18 -63
28 -141z m-1174 -4 c3 -2 25 -569 50 -1259 25 -690 48 -1255 51 -1255 3 0 26
565 51 1255 25 690 47 1257 50 1259 3 3 46 8 97 12 72 5 92 4 92 -6 0 -49
-210 -5621 -214 -5684 -7 -102 -28 -141 -76 -141 -48 0 -69 39 -76 141 -4 63
-214 5635 -214 5684 0 10 20 11 92 6 51 -4 94 -9 97 -12z"/>
<path d="M8620 11540 c-319 -31 -596 -166 -860 -417 -83 -79 -218 -233 -205
-233 4 0 29 18 55 40 88 74 274 190 405 255 520 254 1058 259 1427 12 112 -75
149 -114 213 -221 105 -177 152 -332 162 -532 13 -275 -72 -557 -255 -848 -34
-54 -62 -101 -61 -105 0 -3 24 -18 54 -32 l54 -25 46 97 c240 511 286 1034
134 1518 -35 110 -33 108 -194 216 -305 205 -661 305 -975 275z"/>
<path d="M11142 11540 c-288 -29 -562 -141 -833 -341 l-65 -48 -33 -103 c-152
-489 -107 -1005 135 -1519 l46 -96 54 29 c30 16 54 31 54 33 0 1 -25 43 -56
91 -187 298 -273 578 -261 858 8 195 58 359 163 536 59 99 104 145 212 217
289 193 699 235 1113 113 234 -69 525 -222 712 -374 30 -25 59 -46 62 -46 13
0 -123 155 -205 233 -281 268 -578 402 -925 420 -49 3 -127 1 -173 -3z"/>
<path d="M8505 11024 c-269 -29 -531 -156 -711 -345 -51 -54 -104 -132 -104
-154 0 -22 51 9 144 86 197 164 333 242 511 295 78 23 113 27 260 32 291 7
375 -19 600 -188 134 -101 275 -191 321 -204 31 -9 56 19 52 58 -3 29 -7 32
-84 57 -92 30 -151 66 -284 174 -111 90 -224 148 -330 169 -77 15 -304 27
-375 20z"/>
<path d="M11230 11020 c-181 -17 -289 -63 -440 -185 -134 -109 -192 -144 -284
-174 -77 -25 -81 -28 -84 -57 -4 -39 21 -67 52 -58 48 15 189 105 321 204 225
169 309 195 600 188 147 -5 182 -9 260 -32 175 -52 314 -132 505 -290 98 -82
150 -113 150 -91 0 22 -51 96 -106 155 -240 254 -593 378 -974 340z"/>
<path d="M8533 10830 c-207 -29 -417 -126 -568 -263 -60 -54 -60 -53 60 -122
383 -218 916 -224 1231 -13 84 56 83 50 12 135 -95 114 -240 204 -392 243 -90
23 -255 32 -343 20z m-63 -97 c-78 -88 -95 -206 -46 -307 15 -30 41 -67 59
-82 l32 -27 -30 7 c-101 25 -227 94 -313 172 l-57 51 25 37 c45 66 161 134
284 166 39 10 73 19 75 19 1 1 -12 -16 -29 -36z m497 -27 c85 -43 160 -106
224 -190 l23 -29 -30 -23 c-68 -55 -241 -131 -335 -148 l-36 -6 48 49 c50 51
79 121 79 186 0 51 -27 125 -60 166 -41 51 -24 50 87 -5z"/>
<path d="M11217 10829 c-138 -18 -288 -83 -394 -171 -43 -36 -153 -160 -153
-173 0 -2 33 -26 74 -53 315 -211 848 -205 1231 13 120 69 120 68 60 122 -75
68 -207 152 -299 189 -179 73 -340 96 -519 73z m471 -119 c83 -39 141 -82 172
-126 l25 -37 -57 -51 c-86 -78 -212 -147 -313 -172 l-30 -7 32 27 c18 15 44
52 59 82 49 100 32 219 -45 306 l-32 36 63 -14 c35 -8 91 -28 126 -44z m-568
1 c-85 -105 -77 -253 19 -352 l48 -49 -36 6 c-94 17 -267 93 -336 148 l-29 24
26 34 c59 78 134 140 222 184 110 55 127 56 86 5z"/>
<path d="M9269 9412 c-56 -37 -73 -56 -100 -117 -63 -141 8 -310 151 -360 96
-34 208 -10 280 60 l35 34 59 -29 c82 -39 170 -55 311 -54 140 0 217 15 299
55 l60 29 35 -34 c131 -127 348 -91 427 71 66 133 13 291 -120 360 l-31 16 37
-41 c59 -65 63 -148 13 -224 -75 -113 -255 -98 -314 26 l-22 45 -42 -52 c-51
-63 -150 -131 -219 -152 -29 -8 -86 -15 -128 -15 -42 0 -99 7 -128 15 -69 21
-168 89 -219 152 l-42 52 -22 -45 c-59 -124 -239 -139 -314 -26 -50 76 -46
159 12 223 19 21 33 39 31 39 -2 0 -24 -13 -49 -28z"/>
<path d="M9375 8656 c-285 -154 -976 -563 -991 -587 -7 -12 139 43 364 137
111 47 207 82 212 79 5 -3 82 -22 171 -41 l161 -34 731 0 730 0 116 34 c195
58 149 67 472 -94 156 -78 280 -138 276 -134 -31 34 -548 391 -752 520 -321
203 -283 197 -616 90 -129 -42 -242 -76 -250 -76 -8 0 -110 34 -228 75 -262
92 -281 94 -396 31z m413 -170 l214 -56 241 61 c327 82 307 84 550 -50 103
-57 186 -105 184 -107 -1 -2 -61 -10 -132 -19 -185 -21 -1550 -22 -1700 0 -55
8 -104 15 -110 15 -5 0 85 50 200 110 l210 111 65 -5 c36 -2 161 -29 278 -60z"/>
<path d="M9145 8131 c11 -13 70 -62 130 -110 133 -106 361 -231 420 -231 20 0
96 16 169 36 l131 37 152 -42 c83 -22 159 -41 169 -41 9 0 83 37 163 81 143
80 237 148 315 228 l39 40 -263 -104 -264 -104 -130 41 c-137 43 -218 57 -239
40 -7 -5 -65 -22 -130 -37 l-117 -27 -268 103 c-147 56 -274 104 -282 107 -10
4 -9 -1 5 -17z"/>
<path d="M9817 7585 c-181 -35 -356 -118 -482 -230 l-40 -36 95 47 c241 119
486 173 684 153 170 -17 373 -79 524 -160 41 -21 76 -39 79 -39 11 0 -86 76
-154 120 -84 56 -193 103 -301 131 -103 27 -299 34 -405 14z"/>
</g>
</svg>
